# xmcd
#
# Track frame offsets:
#	150
#	17996
#	34137
#	54537
#	70568
#	89097
#	105757
#	122391
#	139939
#	160281
#	177809
#	194344
#	210810
#	230396
#	251152
#	269212
#	286511
#	301739
#
# Disc length: 4286 seconds
#
# Revision: 1
# Processed by: cddbd v1.5.1PL0 Copyright (c) Steve Scherf et al.
# Submitted via: audiograbber 1.83.01
#
DISCID=f210bc12
DTITLE=Kenny Rogers - Buried Treasure (The Collection) - CD 2
DYEAR=2004
DGENRE=Country
TTITLE0=This Woman
TTITLE1=Two Hearts One Love
TTITLE2=This Love We Share
TTITLE3=Don't Look In My Eyes
TTITLE4=You're My Love
TTITLE5=Eyes That See In The Dark
TTITLE6=You Make Me Feel Love
TTITLE7=Didn't We
TTITLE8=They Don't Make Them Like They Used To
TTITLE9=Wanderin' Man
TTITLE10=Heart To Heart
TTITLE11=I Don't Wanna Have To Worry
TTITLE12=I Will Always Love You
TTITLE13=Anything At All
TTITLE14=Our Perfect Song
TTITLE15=Somebody Took My Love
TTITLE16=Time For Love
TTITLE17=What Aboout Me?
EXTD=
EXTT0=
EXTT1=
EXTT2=
EXTT3=
EXTT4=
EXTT5=
EXTT6=
EXTT7=
EXTT8=
EXTT9=
EXTT10=
EXTT11=
EXTT12=
EXTT13=
EXTT14=
EXTT15=
EXTT16=
EXTT17=
PLAYORDER=
